<svg width="24" height="24" viewBox="0 0 24 24" fill="none" xmlns="http://www.w3.org/2000/svg">
<path d="M5.84341 4.56789C7.47635 2.93495 9.69109 2.01758 12.0004 2.01758C14.3097 2.01758 16.5245 2.93495 18.1574 4.56789C19.7903 6.20083 20.7077 8.41557 20.7077 10.7249C20.7077 13.0342 19.7903 15.249 18.1574 16.8819L16.9704 18.0559C16.0957 18.9146 14.9604 20.0186 13.5644 21.3679C13.1448 21.7736 12.584 22.0004 12.0004 22.0004C11.4168 22.0004 10.856 21.7736 10.4364 21.3679L6.94641 17.9719C6.50641 17.5412 6.13874 17.1779 5.84341 16.8819C5.03483 16.0734 4.39342 15.1135 3.95581 14.0571C3.5182 13.0006 3.29297 11.8684 3.29297 10.7249C3.29297 9.58142 3.5182 8.44914 3.95581 7.39272C4.39342 6.3363 5.03483 5.37642 5.84341 4.56789ZM17.0974 5.62989C16.4282 4.96061 15.6337 4.42969 14.7593 4.06746C13.8849 3.70522 12.9477 3.51875 12.0013 3.51871C10.0898 3.51861 8.25659 4.27785 6.90491 5.62939C5.55324 6.98093 4.79382 8.81407 4.79373 10.7255C4.79363 12.637 5.55287 14.4702 6.90441 15.8219L8.39141 17.2889C9.21008 18.0902 10.2394 19.0902 11.4794 20.2889C11.6192 20.4244 11.8061 20.5002 12.0007 20.5004C12.1953 20.5006 12.3824 20.4251 12.5224 20.2899L15.9174 16.9879C16.3861 16.5279 16.7794 16.1392 17.0974 15.8219C17.7668 15.1526 18.2977 14.3581 18.66 13.4836C19.0222 12.6092 19.2087 11.6719 19.2087 10.7254C19.2087 9.77886 19.0222 8.84161 18.66 7.96714C18.2977 7.09268 17.7668 6.29914 17.0974 5.62989ZM12.0004 7.99889C12.3992 7.99161 12.7954 8.06387 13.1659 8.21144C13.5365 8.35901 13.8739 8.57894 14.1585 8.85837C14.4431 9.13781 14.6691 9.47115 14.8234 9.83893C14.9777 10.2067 15.0572 10.6016 15.0572 11.0004C15.0572 11.3992 14.9777 11.7941 14.8234 12.1618C14.6691 12.5296 14.4431 12.863 14.1585 13.1424C13.8739 13.4218 13.5365 13.6418 13.1659 13.7893C12.7954 13.9369 12.3992 14.0092 12.0004 14.0019C11.2139 13.9875 10.4644 13.665 9.91318 13.1037C9.36201 12.5423 9.0532 11.7871 9.0532 11.0004C9.0532 10.2137 9.36201 9.45844 9.91318 8.89712C10.4644 8.33579 11.2139 8.01325 12.0004 7.99889ZM12.0004 9.49889C11.8 9.49372 11.6005 9.52873 11.4138 9.60186C11.2271 9.67499 11.057 9.78476 10.9134 9.9247C10.7698 10.0646 10.6557 10.2319 10.5777 10.4167C10.4998 10.6014 10.4597 10.7999 10.4597 11.0004C10.4597 11.2009 10.4998 11.3994 10.5777 11.5841C10.6557 11.7689 10.7698 11.9361 10.9134 12.0761C11.057 12.216 11.2271 12.3258 11.4138 12.3989C11.6005 12.4721 11.8 12.5071 12.0004 12.5019C12.389 12.4877 12.757 12.3234 13.0269 12.0434C13.2968 11.7635 13.4476 11.3898 13.4476 11.0009C13.4476 10.612 13.2968 10.2383 13.0269 9.95837C12.757 9.67843 12.389 9.51408 12.0004 9.49989" fill="black"/>
</svg>
