<svg width="37" height="38" viewBox="0 0 37 38" fill="none" xmlns="http://www.w3.org/2000/svg">
<path d="M18.5526 20.0785C18.497 19.9353 18.4836 19.7785 18.5138 19.6275C18.5441 19.4766 18.6168 19.338 18.7229 19.229C18.829 19.12 18.964 19.0453 19.111 19.0142C19.258 18.9832 19.4106 18.997 19.5501 19.0541L33.4251 24.5958C33.5738 24.6555 33.7009 24.7611 33.7886 24.8982C33.8763 25.0352 33.9205 25.1969 33.9149 25.3608C33.9093 25.5247 33.8543 25.6828 33.7574 25.8133C33.6606 25.9437 33.5267 26.04 33.3742 26.0888L28.0647 27.7798C27.8251 27.8559 27.6073 27.9908 27.43 28.1729C27.2526 28.355 27.1213 28.5788 27.0472 28.8248L25.4022 34.2763C25.3547 34.4328 25.2609 34.5704 25.1339 34.6698C25.0069 34.7693 24.853 34.8258 24.6934 34.8316C24.5338 34.8373 24.3764 34.792 24.2429 34.7019C24.1095 34.6117 24.0066 34.4813 23.9485 34.3285L18.5526 20.0785Z" stroke="black" stroke-width="1.5" stroke-linecap="round" stroke-linejoin="round"/>
<path d="M23.125 17.4167V7.91667C23.125 7.07681 22.9084 6.27136 22.5229 5.6775C22.1375 5.08363 21.6146 4.75 21.0694 4.75H6.68056C6.13539 4.75 5.61255 5.08363 5.22706 5.6775C4.84157 6.27136 4.625 7.07681 4.625 7.91667V30.0833C4.625 30.9232 4.84157 31.7286 5.22706 32.3225C5.61255 32.9164 6.13539 33.25 6.68056 33.25H12.8472" stroke="black" stroke-width="1.5" stroke-linecap="round" stroke-linejoin="round"/>
<path d="M9.25049 21.084C9.81306 21.0842 10.2913 21.5563 10.2915 22.167C10.2915 22.7778 9.81316 23.2508 9.25049 23.251C8.68768 23.251 8.2085 22.778 8.2085 22.167C8.20867 21.5562 8.68778 21.084 9.25049 21.084Z" fill="white" stroke="black"/>
</svg>
