<svg width="24" height="23" viewBox="0 0 24 23" fill="none" xmlns="http://www.w3.org/2000/svg">
<path d="M9.25 0.999956C9.44891 0.999956 9.63968 1.07897 9.78033 1.21963C9.92098 1.36028 10 1.55104 10 1.74996C10 1.94887 9.92098 2.13963 9.78033 2.28029C9.63968 2.42094 9.44891 2.49996 9.25 2.49996H4.25C3.52065 2.49996 2.82118 2.78969 2.30546 3.30541C1.78973 3.82114 1.5 4.52061 1.5 5.24996V18.75C1.5 19.4793 1.78973 20.1788 2.30546 20.6945C2.82118 21.2102 3.52065 21.5 4.25 21.5H17.75C18.4793 21.5 19.1788 21.2102 19.6945 20.6945C20.2103 20.1788 20.5 19.4793 20.5 18.75V13.75C20.5 13.551 20.579 13.3603 20.7197 13.2196C20.8603 13.079 21.0511 13 21.25 13C21.4489 13 21.6397 13.079 21.7803 13.2196C21.921 13.3603 22 13.551 22 13.75V18.75C22 19.8771 21.5522 20.9581 20.7552 21.7552C19.9582 22.5522 18.8772 23 17.75 23H4.25C3.12283 23 2.04183 22.5522 1.2448 21.7552C0.447767 20.9581 0 19.8771 0 18.75V5.24996C0 4.12279 0.447767 3.04178 1.2448 2.24475C2.04183 1.44772 3.12283 0.999956 4.25 0.999956H9.25ZM14.429 0.0719559C14.5574 0.0112758 14.7003 -0.0117274 14.8412 0.00562065C14.9821 0.0229687 15.1152 0.0799555 15.225 0.169956L23.475 6.91996C23.5576 6.98753 23.6249 7.07196 23.6723 7.16762C23.7197 7.26327 23.7461 7.36794 23.7498 7.47462C23.7535 7.58131 23.7344 7.68755 23.6937 7.78625C23.653 7.88495 23.5918 7.97383 23.514 8.04696L15.264 15.797C15.1573 15.8973 15.0236 15.9643 14.8793 15.9895C14.7351 16.0148 14.5866 15.9973 14.4521 15.9391C14.3177 15.8809 14.2033 15.7847 14.1229 15.6622C14.0426 15.5397 13.9998 15.3964 14 15.25V11.51C12.834 11.546 11.537 11.699 10.146 12.312C8.562 13.01 6.796 14.333 4.986 16.889L4.624 17.416C4.53471 17.5499 4.4047 17.6515 4.25319 17.7058C4.10169 17.7602 3.93672 17.7643 3.78267 17.7177C3.62862 17.6711 3.49366 17.5761 3.39774 17.4468C3.30181 17.3176 3.25002 17.1609 3.25 17C3.25 12.594 4.59 9.43996 6.76 7.39196C8.738 5.52696 11.325 4.65596 14 4.51996V0.749956C13.9998 0.60775 14.04 0.468411 14.1159 0.34819C14.1919 0.227969 14.3005 0.13282 14.429 0.0719559ZM15.499 5.24896C15.499 5.44787 15.42 5.63863 15.2793 5.77929C15.1387 5.91994 14.9479 5.99896 14.749 5.99896C12.089 5.99896 9.604 6.77096 7.79 8.48196C6.377 9.81596 5.316 11.774 4.92 14.528C6.48 12.705 8.04 11.598 9.541 10.938C11.532 10.06 13.349 9.99996 14.75 9.99996C14.9489 9.99996 15.1397 10.079 15.2803 10.2196C15.421 10.3603 15.5 10.551 15.5 10.75V13.516L21.863 7.53796L15.5 2.33196L15.499 5.24896Z" fill="black"/>
</svg>
